<svg width="70" height="71" viewBox="0 0 70 71" fill="none" xmlns="http://www.w3.org/2000/svg">
<path d="M60 0.5H10C4.47715 0.5 0 4.97715 0 10.5V60.5C0 66.0229 4.47715 70.5 10 70.5H60C65.5229 70.5 70 66.0229 70 60.5V10.5C70 4.97715 65.5229 0.5 60 0.5Z" fill="#F3FCF7"/>
<path d="M35 24.125C33.2926 24.1241 31.6017 24.4597 30.024 25.1127C28.4464 25.7657 27.0129 26.7232 25.8056 27.9306C24.5982 29.1379 23.6407 30.5714 22.9877 32.149C22.3347 33.7267 21.9991 35.4176 22 37.125V39.563C22.0002 39.8649 22.0846 40.1607 22.2435 40.4174C22.4025 40.674 22.6298 40.8813 22.9 41.016L23.63 41.381C23.6801 42.8551 24.3008 44.252 25.3613 45.2771C26.4218 46.3021 27.8391 46.8751 29.314 46.875H30.531C30.8543 46.875 31.1644 46.7466 31.393 46.518C31.6216 46.2894 31.75 45.9793 31.75 45.656V36.719C31.75 36.3957 31.6216 36.0856 31.393 35.857C31.1644 35.6284 30.8543 35.5 30.531 35.5H29.313C28.556 35.4991 27.8066 35.6497 27.1088 35.9431C26.4109 36.2364 25.7789 36.6665 25.25 37.208V37.125C25.25 34.5391 26.2772 32.0592 28.1057 30.2307C29.9342 28.4022 32.4141 27.375 35 27.375C37.5859 27.375 40.0658 28.4022 41.8943 30.2307C43.7228 32.0592 44.75 34.5391 44.75 37.125V37.208C44.2212 36.6666 43.5893 36.2366 42.8917 35.9433C42.1941 35.6499 41.4448 35.4992 40.688 35.5H39.469C39.3089 35.5 39.1504 35.5315 39.0025 35.5928C38.8546 35.6541 38.7202 35.7438 38.607 35.857C38.4938 35.9702 38.4041 36.1046 38.3428 36.2525C38.2815 36.4004 38.25 36.5589 38.25 36.719V45.657C38.25 45.8171 38.2815 45.9756 38.3428 46.1235C38.4041 46.2714 38.4938 46.4058 38.607 46.519C38.7202 46.6322 38.8546 46.722 39.0025 46.7832C39.1504 46.8445 39.3089 46.876 39.469 46.876H40.688C42.1629 46.8761 43.5802 46.3031 44.6407 45.2781C45.7012 44.253 46.3219 42.8561 46.372 41.382L47.102 41.017C47.3722 40.8823 47.5995 40.675 47.7585 40.4184C47.9174 40.1617 48.0018 39.8659 48.002 39.564V37.125C48.0029 35.4174 47.6672 33.7263 47.0141 32.1486C46.361 30.5708 45.4033 29.1372 44.1957 27.9299C42.9882 26.7225 41.5545 25.765 39.9766 25.1121C38.3987 24.4593 36.7076 24.1238 35 24.125Z" fill="#06C167"/>
</svg>
